<svg height="512" viewBox="0 0 50 60" width="512" xmlns="http://www.w3.org/2000/svg"><g id="Page-1" fill="none" fill-rule="evenodd"><g id="124---Script-Folder" fill-rule="nonzero"><path id="Shape" d="m45 5v46c0 2.209139-1.790861 4-4 4h-36c-2.209139 0-4-1.790861-4-4v-37h9c2.209139 0 4-1.790861 4-4v-9h27c2.209139 0 4 1.790861 4 4z" fill="#e8edfc"/><path id="Shape" d="m41 1h-3c2.209139 0 4 1.790861 4 4v46c0 2.209139-1.790861 4-4 4h3c2.209139 0 4-1.790861 4-4v-46c0-2.209139-1.790861-4-4-4z" fill="#cad9fc"/><path id="Shape" d="m49 9v46c0 2.209139-1.790861 4-4 4h-36c-2.209139 0-4-1.790861-4-4h36c2.209139 0 4-1.790861 4-4v-46c2.209139 0 4 1.790861 4 4z" fill="#a4c2f7"/><path id="Shape" d="m14 1v9c0 2.209139-1.790861 4-4 4h-9z" fill="#cad9fc"/><path id="Shape" d="m1 51c0 2.209139 1.790861 4 4 4 0 2.209139 1.790861 4 4 4h3c-2.209139 0-4-1.790861-4-4-2.209139 0-4-1.790861-4-4v-37l13-13h-3l-13 13z" fill="#fff"/><path id="Rectangle-path" d="m0 43h2v8h-2z" fill="#fff"/><g fill="#428dff"><circle id="Oval" cx="1" cy="47" r="1"/><path id="Shape" d="m4.092 55.908c.43726914 2.367854 2.50011325 4.0877314 4.908 4.092h36c2.7600532-.0033061 4.9966939-2.2399468 5-5v-46c-.0042686-2.40788675-1.724146-4.47073086-4.092-4.908-.4372691-2.36785399-2.5001132-4.08773136-4.908-4.092h-27c-.2651948.00005664-.5195073.10545063-.707.293l-13 13c-.18754937.1874927-.29294336.4418052-.293.707v29c0 .5522847.44771525 1 1 1s1-.4477153 1-1v-28h8c2.7600532-.0033061 4.9966939-2.2399468 5-5v-8h26c1.6568542 0 3 1.34314575 3 3v46c0 1.6568542-1.3431458 3-3 3h-36c-1.65685425 0-3-1.3431458-3-3 0-.5522847-.44771525-1-1-1s-1 .4477153-1 1c.00426864 2.4078868 1.72414601 4.4707309 4.092 4.908zm5.908-42.908h-6.586l9.586-9.586v6.586c0 1.6568542-1.3431458 3-3 3zm36 38v-44.816c1.1943509.42225455 1.9947486 1.54921457 2 2.816v46c0 1.6568542-1.3431458 3-3 3h-36c-1.26678543-.0052514-2.39374545-.8056491-2.816-2h34.816c2.7600532-.0033061 4.9966939-2.2399468 5-5z"/><path id="Shape" d="m35 4h-6c-.5522847 0-1 .44771525-1 1s.4477153 1 1 1h6c.5522847 0 1-.44771525 1-1s-.4477153-1-1-1z"/><path id="Shape" d="m41 6c.5522847 0 1-.44771525 1-1s-.4477153-1-1-1h-2c-.5522847 0-1 .44771525-1 1s.4477153 1 1 1z"/><path id="Shape" d="m14 19.1c0-.52.855-1.1 2-1.1.5522847 0 1-.4477153 1-1s-.4477153-1-1-1c-2.243 0-4 1.361-4 3.1v2.8c0 .52-.855 1.1-2 1.1-.55228475 0-1 .4477153-1 1s.44771525 1 1 1c1.145 0 2 .58 2 1.1v2.8c0 1.739 1.757 3.1 4 3.1.5522847 0 1-.4477153 1-1s-.4477153-1-1-1c-1.145 0-2-.58-2-1.1v-2.8c-.014572-.8188684-.3932387-1.5886652-1.033-2.1.6397613-.5113348 1.018428-1.2811316 1.033-2.1z"/><path id="Shape" d="m36 21.9v-2.8c0-1.739-1.757-3.1-4-3.1-.5522847 0-1 .4477153-1 1s.4477153 1 1 1c1.145 0 2 .58 2 1.1v2.8c.014572.8188684.3932387 1.5886652 1.033 2.1-.6397613.5113348-1.018428 1.2811316-1.033 2.1v2.8c0 .52-.855 1.1-2 1.1-.5522847 0-1 .4477153-1 1s.4477153 1 1 1c2.243 0 4-1.361 4-3.1v-2.8c0-.52.855-1.1 2-1.1.5522847 0 1-.4477153 1-1s-.4477153-1-1-1c-1.145 0-2-.58-2-1.1z"/><circle id="Oval" cx="20" cy="27" r="1"/><circle id="Oval" cx="24" cy="27" r="1"/><circle id="Oval" cx="28" cy="27" r="1"/><path id="Shape" d="m6 39h1c.55228475 0 1-.4477153 1-1s-.44771525-1-1-1h-1c-.55228475 0-1 .4477153-1 1s.44771525 1 1 1z"/><path id="Shape" d="m10 38c0 .5522847.4477153 1 1 1h9c.5522847 0 1-.4477153 1-1s-.4477153-1-1-1h-9c-.5522847 0-1 .4477153-1 1z"/><path id="Shape" d="m24 38c0 .5522847.4477153 1 1 1h15c.5522847 0 1-.4477153 1-1s-.4477153-1-1-1h-15c-.5522847 0-1 .4477153-1 1z"/><path id="Shape" d="m6 44h1c.55228475 0 1-.4477153 1-1s-.44771525-1-1-1h-1c-.55228475 0-1 .4477153-1 1s.44771525 1 1 1z"/><path id="Shape" d="m40 42h-9c-.5522847 0-1 .4477153-1 1s.4477153 1 1 1h9c.5522847 0 1-.4477153 1-1s-.4477153-1-1-1z"/><path id="Shape" d="m10 43c0 .5522847.4477153 1 1 1h15c.5522847 0 1-.4477153 1-1s-.4477153-1-1-1h-15c-.5522847 0-1 .4477153-1 1z"/><path id="Shape" d="m6 49h1c.55228475 0 1-.4477153 1-1s-.44771525-1-1-1h-1c-.55228475 0-1 .4477153-1 1s.44771525 1 1 1z"/><path id="Shape" d="m11 47c-.5522847 0-1 .4477153-1 1s.4477153 1 1 1h9c.5522847 0 1-.4477153 1-1s-.4477153-1-1-1z"/><path id="Shape" d="m40 47h-15c-.5522847 0-1 .4477153-1 1s.4477153 1 1 1h15c.5522847 0 1-.4477153 1-1s-.4477153-1-1-1z"/></g></g></g></svg>