<svg xmlns="http://www.w3.org/2000/svg" width="128.001" height="128.001" viewBox="0 0 128.001 128.001">
  <g id="group" transform="translate(0.001 0.001)">
    <path id="Path_1" data-name="Path 1" d="M124.047,10.994H107.315V119.05a2.953,2.953,0,0,1-2.953,2.95H40.37v2.044A2.953,2.953,0,0,0,43.323,127h80.723A2.953,2.953,0,0,0,127,124.047V13.947a2.953,2.953,0,0,0-2.953-2.953Z" fill="#dcdcd2"/>
    <path id="Path_2" data-name="Path 2" d="M113.014,57.591l4.483-4.482-7.975-7.975-2.207,2.207V65.83a15.008,15.008,0,0,1,0,8.341V92.66l2.207,2.207,7.975-7.975-4.483-4.483a23.709,23.709,0,0,0,2.807-6.77h6.337V64.361h-6.337a23.712,23.712,0,0,0-2.807-6.77Z" fill="#c8c8be"/>
    <path id="Path_3" data-name="Path 3" d="M109.362,11h-2.047V119.05a2.953,2.953,0,0,1-2.953,2.95H40.37v2.044A2.953,2.953,0,0,0,43.323,127h66.07a2.951,2.951,0,0,0,2.922-2.95V13.95A2.953,2.953,0,0,0,109.362,11Z" fill="#c8c8be"/>
    <path id="Path_4" data-name="Path 4" d="M84.676,117.006a2.953,2.953,0,0,0,2.953-2.953V11H72.175L40.37,42.8V117Z" fill="#a99be0"/>
    <path id="Path_5" data-name="Path 5" d="M104.362,6H87.63V114.053a2.953,2.953,0,0,1-2.953,2.953H20.685v2.044A2.953,2.953,0,0,0,23.638,122h80.723a2.953,2.953,0,0,0,2.953-2.953V8.95A2.953,2.953,0,0,0,104.362,6Z" fill="#f0f0e6"/>
    <path id="Path_6" data-name="Path 6" d="M107.315,92.66V74.17A15.225,15.225,0,0,1,87.63,84.422V99.528H98.269V93.191a23.708,23.708,0,0,0,6.77-2.807Z" fill="#dcdcd2"/>
    <path id="Path_7" data-name="Path 7" d="M98.269,46.809V40.472H87.63V55.578A15.225,15.225,0,0,1,107.315,65.83V47.34l-2.276,2.276a23.71,23.71,0,0,0-6.77-2.807Z" fill="#dcdcd2"/>
    <path id="Path_8" data-name="Path 8" d="M89.676,6H87.63V114.053a2.953,2.953,0,0,1-2.953,2.953H20.685v2.044A2.953,2.953,0,0,0,23.638,122h66.07a2.951,2.951,0,0,0,2.922-2.95V8.953A2.953,2.953,0,0,0,89.676,6Z" fill="#dcdcd2"/>
    <path id="Path_9" data-name="Path 9" d="M3.953,117.006H84.676a2.953,2.953,0,0,0,2.953-2.953V3.953A2.953,2.953,0,0,0,84.676,1H32.808L1,32.808v81.245a2.953,2.953,0,0,0,2.953,2.953Z" fill="#fffffa"/>
    <path id="Path_10" data-name="Path 10" d="M87.63,99.528V84.422a15.258,15.258,0,0,1,0-28.844V40.472h-.639v6.337a23.71,23.71,0,0,0-6.77,2.807l-4.483-4.483-7.975,7.975,4.483,4.482a23.708,23.708,0,0,0-2.807,6.77H63.1V75.639h6.337a23.711,23.711,0,0,0,2.807,6.77l-4.483,4.483,7.975,7.975,4.483-4.482a23.708,23.708,0,0,0,6.77,2.807v6.337Z" fill="#dcdcd2"/>
    <path id="Path_11" data-name="Path 11" d="M32.808,1,1,32.808v6H29.855a8.964,8.964,0,0,0,8.953-8.953V1Z" fill="#dcdcd2"/>
    <path id="Path_12" data-name="Path 12" d="M1,32.808H29.855a2.953,2.953,0,0,0,2.953-2.953V1Z" fill="#f0f0e6"/>
    <path id="Path_13" data-name="Path 13" d="M110.821,58.361a23.711,23.711,0,0,0-2.807-6.77l4.483-4.483-7.975-7.975-4.483,4.483a23.709,23.709,0,0,0-6.77-2.807V34.472H81.991v6.337a23.709,23.709,0,0,0-6.77,2.807l-4.483-4.483-7.975,7.975,4.483,4.483a23.709,23.709,0,0,0-2.807,6.77H58.1V69.639h6.337a23.712,23.712,0,0,0,2.807,6.77l-4.483,4.483,7.975,7.975,4.483-4.483a23.709,23.709,0,0,0,6.77,2.807v6.337h11.28V87.191a23.709,23.709,0,0,0,6.77-2.807l4.483,4.483,7.975-7.975-4.483-4.483a23.71,23.71,0,0,0,2.807-6.77h6.337V58.361ZM87.63,79.276A15.276,15.276,0,1,1,102.906,64,15.276,15.276,0,0,1,87.63,79.276Z" fill="#788ee6"/>
    <path id="Path_14" data-name="Path 14" d="M102.412,45.989l4.483-4.482-2.373-2.373-4.482,4.483a23.749,23.749,0,0,0-4.4-2.082s4.7,3.19,6.772,4.454Z" fill="#8cb4fa"/>
    <path id="Path_15" data-name="Path 15" d="M84.364,43.182V36.845h8.9V34.472H81.991v6.337a23.71,23.71,0,0,0-6.77,2.807l2.373,2.373a23.708,23.708,0,0,1,6.77-2.807Z" fill="#8cb4fa"/>
    <path id="Path_16" data-name="Path 16" d="M99.547,54.456A15.266,15.266,0,0,1,78.086,75.917,15.269,15.269,0,1,0,99.547,54.456Z" fill="#8cb4fa"/>
    <path id="Path_17" data-name="Path 17" d="M65.136,49.481l7.975-7.975-2.373-2.373-7.975,7.975,3.428,3.428Z" fill="#8cb4fa"/>
    <path id="Path_18" data-name="Path 18" d="M60.475,66.373V60.734h6.337a23.712,23.712,0,0,1,2.807-6.77l-2.373-2.373a23.708,23.708,0,0,0-2.807,6.77H58.1V69.639h2.373Z" fill="#8cb4fa"/>
    <path id="Path_19" data-name="Path 19" d="M69.619,78.782c-1.264-2.072-4.454-6.77-4.454-6.77a23.75,23.75,0,0,0,2.081,4.4L62.763,80.9l7.975,7.975-5.6-5.6Z" fill="#8cb4fa"/>
    <path id="Path_20" data-name="Path 20" d="M45.045,90.315a13.534,13.534,0,0,0-1.6-3.864L46,83.892,41.45,79.34,38.891,81.9a13.533,13.533,0,0,0-3.864-1.6V76.679H28.589V80.3a13.533,13.533,0,0,0-3.864,1.6l-2.559-2.56-4.552,4.552,2.559,2.559a13.533,13.533,0,0,0-1.6,3.864H14.954v6.438h3.617a13.534,13.534,0,0,0,1.6,3.864l-2.559,2.559,4.552,4.552,2.559-2.559a13.533,13.533,0,0,0,3.864,1.6v3.617h6.438V106.77a13.533,13.533,0,0,0,3.864-1.6l2.559,2.559L46,103.175l-2.559-2.559a13.533,13.533,0,0,0,1.6-3.864h3.617V90.315ZM31.808,102.253a8.719,8.719,0,1,1,8.719-8.719,8.719,8.719,0,0,1-8.719,8.719Z" fill="#dcdcd2"/>
    <path id="Path_21" data-name="Path 21" d="M42.788,88.315a13.534,13.534,0,0,0-1.6-3.864l2.559-2.559L39.193,77.34,36.634,79.9a13.533,13.533,0,0,0-3.864-1.6V74.679H26.332V78.3a13.533,13.533,0,0,0-3.864,1.6l-2.559-2.56-4.552,4.552,2.559,2.559a13.533,13.533,0,0,0-1.6,3.864H12.7v6.438h3.617a13.534,13.534,0,0,0,1.6,3.864l-2.559,2.559,4.552,4.552,2.559-2.559a13.533,13.533,0,0,0,3.864,1.6v3.617H32.77V104.77a13.533,13.533,0,0,0,3.864-1.6l2.559,2.559,4.552-4.552-2.559-2.559a13.533,13.533,0,0,0,1.6-3.864H46.4V88.315ZM29.551,100.253a8.719,8.719,0,1,1,8.719-8.719,8.719,8.719,0,0,1-8.719,8.719Z" fill="#85caff"/>
    <path id="Path_22" data-name="Path 22" d="M32.808,5.883V1L1,32.808H5.883Z" fill="#fffffa"/>
    <g id="Group_1" data-name="Group 1">
      <path id="Path_24" data-name="Path 24" d="M124.047,128H43.323a3.958,3.958,0,0,1-3.953-3.953V122a1,1,0,0,1,1-1h63.991a1.956,1.956,0,0,0,1.954-1.953V103.193a1,1,0,0,1,2,0V119.05a3.958,3.958,0,0,1-3.954,3.95H41.37v1.044A1.955,1.955,0,0,0,43.323,126h80.724A1.955,1.955,0,0,0,126,124.047V13.947a1.956,1.956,0,0,0-1.953-1.954H108.315v29.52L113.2,46.4a1,1,0,0,1,0,1.414l-3.936,3.936a24.67,24.67,0,0,1,2.326,5.609h5.563a1,1,0,0,1,1,1v11.28a1,1,0,0,1-1,1H111.59a24.678,24.678,0,0,1-2.326,5.61l3.936,3.936a1,1,0,0,1,0,1.414l-4.889,4.889v7.04a1,1,0,0,1-2,0V86.073a1,1,0,0,1,.293-.707l4.475-4.475L107.3,77.116a1,1,0,0,1-.146-1.228,22.719,22.719,0,0,0,2.689-6.485,1,1,0,0,1,.972-.765h5.336V59.36h-5.336a1,1,0,0,1-.972-.765,22.725,22.725,0,0,0-2.689-6.484,1,1,0,0,1,.146-1.228l3.776-3.775L106.6,42.633a1,1,0,0,1-.293-.707V10.993a1,1,0,0,1,1-1h16.732A3.958,3.958,0,0,1,128,13.947v110.1A3.958,3.958,0,0,1,124.047,128Z" fill="#785ae6"/>
      <path id="Path_25" data-name="Path 25" d="M100.039,44.616a1,1,0,0,1-.521-.146,22.7,22.7,0,0,0-6.485-2.689,1,1,0,0,1-.764-.972V35.473H87.63a1,1,0,0,1-1-1V19.819a1,1,0,0,1,2,0V33.473h4.639a1,1,0,0,1,1,1v5.563a24.749,24.749,0,0,1,5.61,2.326l3.935-3.936a1.029,1.029,0,0,1,1.414,0l1.086,1.087V8.95A1.956,1.956,0,0,0,104.361,7H88.63v4a1,1,0,1,1-2,0V6a1,1,0,0,1,1-1h16.731a3.958,3.958,0,0,1,3.954,3.953V41.927a1,1,0,0,1-1.707.707l-2.086-2.087-3.775,3.776a1,1,0,0,1-.708.293Z" fill="#785ae6"/>
      <path id="Path_27" data-name="Path 27" d="M87.63,80.276a1,1,0,0,1-1-1V48.724a1,1,0,0,1,1-1,16.23,16.23,0,0,1,5.57.979,1,1,0,1,1-.684,1.879,14.218,14.218,0,0,0-3.887-.823V78.242A14.279,14.279,0,0,0,99.266,55.727a1,1,0,1,1,1.629-1.16A16.278,16.278,0,0,1,87.63,80.276Z" fill="#785ae6"/>
      <path id="Path_28" data-name="Path 28" d="M87.63,80.276a16.277,16.277,0,0,1,0-32.553,1,1,0,0,1,1,1V79.276A1,1,0,0,1,87.63,80.276Zm-1-30.519a14.277,14.277,0,0,0,0,28.484Z" fill="#785ae6"/>
      <path id="Path_29" data-name="Path 29" d="M84.676,118.006H3.953A3.958,3.958,0,0,1,0,114.053v-5.665a1,1,0,0,1,2,0v5.665a1.955,1.955,0,0,0,1.953,1.953H84.676a1.956,1.956,0,0,0,1.954-1.953V94.527H81.991a1,1,0,0,1-1-1V87.965a24.74,24.74,0,0,1-5.61-2.326l-3.935,3.935a1,1,0,0,1-1.414,0L62.056,81.6a1,1,0,0,1,0-1.414l3.935-3.936a24.692,24.692,0,0,1-2.326-5.61H58.1a1,1,0,0,1-1-1V58.36a1,1,0,0,1,1-1h5.563a24.661,24.661,0,0,1,2.326-5.609l-3.935-3.936a1,1,0,0,1,0-1.414l7.975-7.976a1,1,0,0,1,1.414,0l3.935,3.936a24.7,24.7,0,0,1,5.61-2.326V34.473a1,1,0,0,1,1-1H86.63V19.819a1,1,0,0,1,2,0V34.473a1,1,0,0,1-1,1H82.991v5.336a1,1,0,0,1-.764.972,22.684,22.684,0,0,0-6.485,2.689,1,1,0,0,1-1.228-.146l-3.775-3.776L64.178,47.11l3.775,3.775a1,1,0,0,1,.146,1.228A22.7,22.7,0,0,0,65.411,58.6a1,1,0,0,1-.972.765H59.1v9.278h5.336a1,1,0,0,1,.972.765A22.726,22.726,0,0,0,68.1,75.889a1,1,0,0,1-.146,1.228l-3.775,3.775,6.561,6.561,3.775-3.775a1,1,0,0,1,1.228-.146,22.684,22.684,0,0,0,6.485,2.689,1,1,0,0,1,.764.972v5.336H87.63a1,1,0,0,1,1,1v20.525a3.958,3.958,0,0,1-3.954,3.952Z" fill="#785ae6"/>
      <path id="Path_30" data-name="Path 30" d="M1,100.527a1,1,0,0,1-1-1V32.808A1,1,0,0,1,.293,32.1L32.1.293A1,1,0,0,1,32.808,0H84.676A3.958,3.958,0,0,1,88.63,3.953v7.04a1,1,0,1,1-2,0V3.953A1.956,1.956,0,0,0,84.676,2H33.222L2,33.222V99.527a1,1,0,0,1-1,1Z" fill="#785ae6"/>
      <path id="Path_31" data-name="Path 31" d="M29.854,33.808H1A1,1,0,0,1,.293,32.1L32.1.293A1,1,0,0,1,33.808,1V29.854a3.958,3.958,0,0,1-3.954,3.954Zm-26.44-2h26.44a1.956,1.956,0,0,0,1.954-1.953V3.414Z" fill="#785ae6"/>
      <path id="Path_32" data-name="Path 32" d="M93.269,94.527H81.991a1,1,0,0,1-1-1V87.965a24.74,24.74,0,0,1-5.61-2.326l-3.935,3.935a1,1,0,0,1-1.414,0L62.056,81.6a1,1,0,0,1,0-1.414l3.935-3.936a24.707,24.707,0,0,1-2.326-5.609H58.1a1,1,0,0,1-1-1V58.36a1,1,0,0,1,1-1h5.563a24.661,24.661,0,0,1,2.326-5.609l-3.935-3.936a1,1,0,0,1,0-1.414l7.975-7.975a1,1,0,0,1,1.414,0l3.935,3.935a24.74,24.74,0,0,1,5.61-2.326V34.473a1,1,0,0,1,1-1H93.269a1,1,0,0,1,1,1v5.563a24.708,24.708,0,0,1,5.61,2.327l3.935-3.936a1,1,0,0,1,1.414,0L113.2,46.4a1,1,0,0,1,0,1.414l-3.935,3.936a24.705,24.705,0,0,1,2.326,5.609h5.563a1,1,0,0,1,1,1V69.64a1,1,0,0,1-1,1h-5.563a24.7,24.7,0,0,1-2.326,5.609l3.935,3.936a1,1,0,0,1,0,1.414l-7.975,7.975a1,1,0,0,1-1.414,0l-3.935-3.936a24.708,24.708,0,0,1-5.61,2.327v5.563a1,1,0,0,1-1,1Zm-10.278-2h9.278V87.191a1,1,0,0,1,.764-.972,22.7,22.7,0,0,0,6.485-2.689,1,1,0,0,1,1.228.146l3.775,3.775,6.561-6.561-3.775-3.775a1,1,0,0,1-.147-1.228,22.732,22.732,0,0,0,2.689-6.484,1,1,0,0,1,.972-.765h5.336V59.36h-5.336a1,1,0,0,1-.972-.765,22.732,22.732,0,0,0-2.689-6.484,1,1,0,0,1,.147-1.228l3.775-3.775-6.561-6.561-3.775,3.775a1,1,0,0,1-1.228.146,22.7,22.7,0,0,0-6.485-2.689,1,1,0,0,1-.764-.972V35.473H82.991v5.336a1,1,0,0,1-.764.972,22.684,22.684,0,0,0-6.485,2.689,1,1,0,0,1-1.228-.146l-3.775-3.775L64.178,47.11l3.775,3.775a1,1,0,0,1,.146,1.228A22.705,22.705,0,0,0,65.411,58.6a1,1,0,0,1-.972.765H59.1V68.64h5.336a1,1,0,0,1,.972.765A22.72,22.72,0,0,0,68.1,75.889a1,1,0,0,1-.146,1.228l-3.775,3.775,6.561,6.561,3.775-3.775a1,1,0,0,1,1.228-.146,22.684,22.684,0,0,0,6.485,2.689,1,1,0,0,1,.764.972ZM87.63,80.276A16.276,16.276,0,1,1,93.2,48.7a1,1,0,1,1-.684,1.879,14.284,14.284,0,1,0,6.749,5.146,1,1,0,1,1,1.629-1.16A16.278,16.278,0,0,1,87.63,80.276Z" fill="#5a68e6"/>
      <path id="Path_33" data-name="Path 33" d="M32.77,109.388H26.332a1,1,0,0,1-1-1v-2.854a14.506,14.506,0,0,1-2.7-1.118l-2.018,2.018a1,1,0,0,1-1.414,0l-4.552-4.552a1,1,0,0,1,0-1.414l2.018-2.018a14.5,14.5,0,0,1-1.118-2.7H12.7a1,1,0,0,1-1-1V88.314a1,1,0,0,1,1-1h2.85a14.5,14.5,0,0,1,1.118-2.7L14.65,82.6a1,1,0,0,1,0-1.414l4.55-4.553a1,1,0,0,1,1.414,0l2.018,2.018a14.506,14.506,0,0,1,2.7-1.118V74.68a1,1,0,0,1,1-1H32.77a1,1,0,0,1,1,1v2.853a14.5,14.5,0,0,1,2.7,1.118l2.018-2.018a1.029,1.029,0,0,1,1.414,0l4.552,4.552a1,1,0,0,1,0,1.414l-2.018,2.018a14.5,14.5,0,0,1,1.118,2.7h2.853a1,1,0,0,1,1,1v6.438a1,1,0,0,1-1,1H43.552a14.5,14.5,0,0,1-1.118,2.7l2.018,2.018a1,1,0,0,1,0,1.414L39.9,106.434a1,1,0,0,1-1.414,0l-2.018-2.018a14.5,14.5,0,0,1-2.7,1.118v2.854a1,1,0,0,1-1,1Zm-5.438-2H31.77v-2.617a1,1,0,0,1,.764-.972,12.545,12.545,0,0,0,3.579-1.484,1,1,0,0,1,1.228.146l1.851,1.852,3.138-3.138-1.852-1.852a1,1,0,0,1-.146-1.228,12.545,12.545,0,0,0,1.484-3.579,1,1,0,0,1,.972-.765h2.617V89.314H42.788a1,1,0,0,1-.972-.765,12.545,12.545,0,0,0-1.484-3.579,1,1,0,0,1,.146-1.228L42.33,81.89l-3.138-3.138L37.341,80.6a1,1,0,0,1-1.228.146,12.545,12.545,0,0,0-3.579-1.484,1,1,0,0,1-.764-.972V75.68H27.332V78.3a1,1,0,0,1-.764.972,12.554,12.554,0,0,0-3.579,1.484,1,1,0,0,1-1.228-.146L19.91,78.754l-3.138,3.138,1.852,1.852a1,1,0,0,1,.146,1.228,12.545,12.545,0,0,0-1.484,3.579,1,1,0,0,1-.972.765H13.7v4.438h2.617a1,1,0,0,1,.972.765A12.545,12.545,0,0,0,18.77,98.1a1,1,0,0,1-.146,1.228l-1.852,1.852,3.138,3.138,1.852-1.852a1,1,0,0,1,1.228-.146,12.554,12.554,0,0,0,3.579,1.484,1,1,0,0,1,.764.972Zm2.219-6.135a9.72,9.72,0,1,1,9.719-9.72,9.72,9.72,0,0,1-9.719,9.72Zm0-17.439a7.72,7.72,0,1,0,7.719,7.72,7.72,7.72,0,0,0-7.719-7.72Z" fill="#785ae6"/>
      <path id="Path_34" data-name="Path 34" d="M58.5,29.91a1.52,1.52,0,0,1-.511-.09l-2.819-.786A1.035,1.035,0,0,1,55.061,29a1.728,1.728,0,0,1-.823-.679,1.435,1.435,0,0,1-.1-1.323l1.331-4.6L53.711,24.27a1.59,1.59,0,0,1-2.156.194.877.877,0,0,1-.084-.07l-6.75-6.329a1.593,1.593,0,0,1-.5-1.151,1.573,1.573,0,0,1,.48-1.129l6.773-6.352a.877.877,0,0,1,.084-.07,1.59,1.59,0,0,1,2.156.194L55.7,11.684a1.483,1.483,0,0,1,.429,1.2,1.59,1.59,0,0,1-.452.982l-3.459,3.043,3.412,3a1.683,1.683,0,0,1,.388.57l4.46-15.428a.964.964,0,0,1,.033-.1,1.715,1.715,0,0,1,.679-.825,1.547,1.547,0,0,1,1.148-.2l2.946.865a1.775,1.775,0,0,1,.917.71,1.435,1.435,0,0,1,.1,1.323l-1.331,4.6,1.782-1.907a1.561,1.561,0,0,1,1.129-.5,1.659,1.659,0,0,1,1,.341.878.878,0,0,1,.084.07l6.751,6.329a1.593,1.593,0,0,1,.5,1.151,1.573,1.573,0,0,1-.48,1.129l-6.774,6.352a.875.875,0,0,1-.084.07,1.594,1.594,0,0,1-2.156-.193l-1.988-2.127a1.483,1.483,0,0,1-.429-1.2,1.59,1.59,0,0,1,.452-.982l3.459-3.044-3.412-3a1.685,1.685,0,0,1-.388-.57L59.96,28.771a1.773,1.773,0,0,1-.712.921,1.4,1.4,0,0,1-.748.218Zm-2.356-2.681,2.024.564L64.3,6.587,62.287,6Zm-.116.4v.015ZM66.5,21.092l1.433,1.532,6.094-5.713-6.1-5.711-1.434,1.534,3.9,3.428a1,1,0,0,1,0,1.5ZM46.417,16.913l6.093,5.713,1.434-1.533-3.9-3.429a1,1,0,0,1,0-1.5l3.9-3.429L52.51,11.2Zm7.821,3.865-.007.008Zm11.938-.024.013.014ZM54.249,13.06l.013.014Zm11.959-.019-.008.008Zm-1.792-6.86V6.2Z" fill="#785ae6"/>
      <path id="Path_35" data-name="Path 35" d="M32.808,44.169H9.44a1,1,0,0,1,0-2H32.808a1,1,0,0,1,0,2Z" fill="#785ae6"/>
      <path id="Path_36" data-name="Path 36" d="M49.662,44.169H41.235a1,1,0,0,1,0-2h8.427a1,1,0,0,1,0,2Z" fill="#785ae6"/>
      <path id="Path_37" data-name="Path 37" d="M49.662,54.743H9.44a1,1,0,0,1,0-2H49.662a1,1,0,0,1,0,2Z" transform="translate(0 -5)" fill="#785ae6"/>
    </g>
    <g id="Group_3" data-name="Group 3" transform="translate(-791.202 -395.879)">
      <path id="Path_58" data-name="Path 58" d="M56.315,220.227H32.195a2.7,2.7,0,0,1-2.695-2.695v-9.837A2.7,2.7,0,0,1,32.195,205h24.12a2.7,2.7,0,0,1,2.695,2.695v9.837A2.7,2.7,0,0,1,56.315,220.227Z" transform="translate(774.5 244)" fill="#dc4955" stroke="#785ae6" stroke-width="1"/>
      <path id="Path_59" data-name="Path 59" d="M33.879,220.227H32.195a2.7,2.7,0,0,1-2.695-2.695v-9.837A2.7,2.7,0,0,1,32.195,205h1.684a2.7,2.7,0,0,0-2.695,2.695v9.837A2.7,2.7,0,0,0,33.879,220.227Z" transform="translate(774.5 244)" fill="#c42430"/>
      <g id="Group_2" data-name="Group 2" transform="translate(807.775 452.2)">
        <path id="Path_60" data-name="Path 60" d="M89.868,261.195a4.345,4.345,0,1,1,2.43-7.948.505.505,0,1,1-.566.837,3.335,3.335,0,1,0-1.864,6.1,2.519,2.519,0,0,0,2.032-.9.505.505,0,1,1,.775.649,3.526,3.526,0,0,1-2.806,1.265Z" transform="translate(-85.523 -252.503)" fill="#f9f8f9"/>
        <path id="Path_61" data-name="Path 61" d="M216.608,261.186a4.16,4.16,0,0,1-3.051-1.3.505.505,0,0,1,.749-.679,3.135,3.135,0,0,0,2.3.972,1.728,1.728,0,0,0,1.789-1.248c.114-.64-.359-1.206-1.3-1.552-1.177-.434-2.221-.9-2.265-.919a.508.508,0,0,1-.07-.038,1.991,1.991,0,0,1-.887-1.971,2.252,2.252,0,0,1,1.639-1.81,4,4,0,0,1,3.474.766.505.505,0,0,1-.649.775,3.017,3.017,0,0,0-2.534-.573,1.238,1.238,0,0,0-.93.986.976.976,0,0,0,.408.96c.2.089,1.145.5,2.164.876,1.674.618,2.1,1.788,1.942,2.678A2.75,2.75,0,0,1,216.608,261.186Z" transform="translate(-204.809 -252.494)" fill="#f9f8f9"/>
        <path id="Path_62" data-name="Path 62" d="M325.634,261.185a4.16,4.16,0,0,1-3.051-1.3.505.505,0,0,1,.749-.679,3.135,3.135,0,0,0,2.3.972,1.728,1.728,0,0,0,1.789-1.248c.114-.64-.359-1.206-1.3-1.552-1.177-.434-2.221-.9-2.265-.919a.508.508,0,0,1-.07-.038,1.991,1.991,0,0,1-.887-1.971,2.252,2.252,0,0,1,1.639-1.81,4,4,0,0,1,3.474.766.505.505,0,0,1-.649.775,3.018,3.018,0,0,0-2.534-.573,1.238,1.238,0,0,0-.93.986.977.977,0,0,0,.408.96c.2.089,1.145.5,2.164.876,1.674.618,2.1,1.788,1.942,2.678A2.75,2.75,0,0,1,325.634,261.185Z" transform="translate(-306.49 -252.493)" fill="#f9f8f9"/>
      </g>
    </g>
    <path id="Path_51" data-name="Path 51" d="M32.432,73.071v12.3a2.043,2.043,0,0,1-2.043,2.043H12.047A2.043,2.043,0,0,1,10,85.374v-12.3a2.044,2.044,0,0,1,2.043-2.043H30.389A2.044,2.044,0,0,1,32.432,73.071Zm0,0" transform="translate(41.654 24)" fill="#fade76" stroke="#785ae6" stroke-width="1"/>
    <path id="Path_52" data-name="Path 52" d="M44.138,101.043a1.024,1.024,0,0,0-1.024,1.024v6.162a1.01,1.01,0,0,1-1.008,1.008h-.032a1.009,1.009,0,0,1-1.008-1.008,1.025,1.025,0,0,0-2.049,0,3.061,3.061,0,0,0,3.057,3.057h.032a3.061,3.061,0,0,0,3.057-3.057v-6.162a1.025,1.025,0,0,0-1.024-1.024Zm0,0" transform="translate(15.613 -2.942)"/>
    <path id="Path_53" data-name="Path 53" d="M125.607,108.294a3.191,3.191,0,0,0-3.483-3.1,1,1,0,1,1,0-2h1.341a1.024,1.024,0,0,0,2.04-.135v-.889a1.025,1.025,0,0,0-1.024-1.024h-2.356a3.048,3.048,0,1,0,0,6.1c1.058,0,1.434.566,1.434,1.05s-.376,1.05-1.434,1.05H121.1a1.024,1.024,0,0,0-2.048.024v1a1.025,1.025,0,0,0,1.024,1.024h2.049a3.191,3.191,0,0,0,3.483-3.1Zm0,0" transform="translate(-56.227 -3.037)"/>
  </g>
</svg>
